Coordinates
version=1
nRows=17
nColumns=36
inDegrees=yes

Units are S.I. units (second, meters, Newtons, ...)
If the header above contains a line with 'inDegrees', this indicates whether rotational values are in degrees (yes) or radians (no).

endheader
time	pelvis_tilt	pelvis_list	pelvis_rotation	pelvis_tx	pelvis_ty	pelvis_tz	hip_flexion_r	hip_adduction_r	hip_rotation_r	knee_angle_r	knee_angle_r_beta	ankle_angle_r	subtalar_angle_r	mtp_angle_r	hip_flexion_l	hip_adduction_l	hip_rotation_l	knee_angle_l	knee_angle_l_beta	ankle_angle_l	subtalar_angle_l	mtp_angle_l	lumbar_extension	lumbar_bending	lumbar_rotation	arm_flex_r	arm_add_r	arm_rot_r	elbow_flex_r	pro_sup_r	arm_flex_l	arm_add_l	arm_rot_l	elbow_flex_l	pro_sup_l
      6.44583330	    -15.71706158	     -0.92889810	      0.20270357	      0.36412543	      0.87946707	      0.03492369	     38.58317530	     -1.79111612	      2.16858463	     44.86012581	      0.78295690	     20.49352321	    -18.99573548	     -7.49999987	     36.32669911	     -8.86831465	      3.56242027	     45.78524036	      0.79910319	     25.57325910	     -3.13995633	     -7.49999987	    -14.23903078	      1.57860620	      0.63924689	      4.46767228	     -7.87581475	     -2.98169618	     26.76313395	     89.59917870	      2.63270797	     -6.66569208	     -3.50529351	     27.80291219	     93.56511694
      6.45000000	    -15.86290332	     -0.98404886	      0.20079861	      0.36348861	      0.87873620	      0.03467145	     38.58296553	     -1.73068211	      2.20263410	     44.51842555	      0.77699310	     20.32896446	    -18.97660546	     -7.49999987	     36.34234475	     -8.91829626	      3.58844816	     45.37347689	      0.79191656	     25.28027839	     -2.96634762	     -7.49999987	    -14.08259201	      1.61999419	      0.55300962	      4.44655228	     -7.75739278	     -3.17423736	     26.90410591	     88.47321753	      2.60827055	     -6.65865101	     -3.71062106	     27.91963298	     92.20175138
      6.45416670	    -15.93121009	     -0.96881509	      0.22694376	      0.36494388	      0.88261663	      0.03393095	     38.25198914	     -1.74500429	      2.35454357	     43.79455416	      0.76435916	     19.92159195	    -19.10802341	     -7.49999987	     36.02476021	     -8.86848193	      3.45920553	     44.68762775	      0.77994624	     25.00552384	     -2.87195270	     -7.49999987	    -13.99746959	      1.61475144	      0.48249778	      4.40400454	     -7.69042149	     -3.16452465	     26.88452798	     87.66686167	      2.65853841	     -6.60027533	     -3.72798797	     27.89486186	     91.23548463
      6.45833330	    -16.01138177	     -1.05441856	      0.27886679	      0.36364362	      0.88295840	      0.03417758	     38.08085545	     -1.63823811	      2.42469094	     43.29270180	      0.75560019	     19.60956790	    -19.20839083	     -7.49999987	     35.90951926	     -8.92232329	      3.46938520	     44.14517057	      0.77047858	     24.56206606	     -2.86608442	     -7.49999987	    -13.97834698	      1.68649403	      0.36405589	      4.41223088	     -7.79047966	     -2.51792598	     26.98401421	     90.50828031	      2.66909441	     -6.72875071	     -3.59687591	     28.09886033	     94.69359777
      6.46250000	    -16.14720228	     -1.02030119	      0.40279541	      0.36484241	      0.88309746	      0.03347213	     37.94493393	     -1.67583620	      2.49789190	     42.77852291	      0.74662607	     19.52714597	    -19.10840403	     -7.49999987	     35.90601542	     -8.85977631	      3.36325081	     43.82362745	      0.76486659	     24.30622140	     -2.87368949	     -7.49999987	    -13.84039789	      1.70370304	      0.26142944	      4.22650458	     -7.73239448	     -2.65309004	     27.20248879	     90.05646833	      2.61161528	     -6.69813089	     -3.71691236	     28.27857424	     94.14818668
      6.46666670	    -16.29613012	     -1.03571789	      0.44550938	      0.36476327	      0.88421629	      0.03270804	     37.82131693	     -1.65865628	      2.55202067	     42.24863006	      0.73737770	     19.20370865	    -19.24783204	     -7.49999987	     35.87490701	     -8.84205580	      3.26599776	     43.45229497	      0.75838561	     24.12857247	     -2.84103173	     -7.49999987	    -13.54951891	      1.72466359	      0.16736794	      4.15078548	     -7.70183969	     -2.74246558	     27.12636765	     89.12410737	      2.64058555	     -6.57028597	     -3.75270666	     28.13592085	     93.04457436
      6.47083330	    -16.51467325	     -1.07082163	      0.48028952	      0.36500830	      0.88481703	      0.03255164	     37.79518843	     -1.60525014	      2.67494792	     41.76810381	      0.72899093	     18.89711690	    -19.50376384	     -7.49999987	     35.95983340	     -8.79838776	      3.30996747	     43.14789546	      0.75307284	     23.82979726	     -3.05631807	     -7.49999987	    -13.16612349	      1.78532655	      0.11480958	      3.93969542	     -7.70554967	     -2.69290816	     27.24668728	     88.13811528	      2.54157708	     -6.46404960	     -3.70813237	     28.19849225	     91.96892339
      6.47500000	    -16.68553394	     -1.07929194	      0.52685264	      0.36670435	      0.88717144	      0.03248930	     37.62028703	     -1.59526186	      2.69397921	     41.20147015	      0.71910131	     18.61797576	    -19.58628661	     -7.49999987	     35.81964301	     -8.70969916	      3.34947702	     42.62955138	      0.74402603	     23.51950092	     -3.33214126	     -7.49999987	    -12.85678010	      1.86180844	      0.10879041	      3.81238445	     -7.74363477	     -2.50404489	     27.21461568	     87.54583478	      2.51479487	     -6.40150469	     -3.52492365	     28.10879710	     91.30942608
      6.47916670	    -17.02433042	     -0.96544265	      0.60796909	      0.36465518	      0.88421415	      0.02959166	     38.01650599	     -1.81822822	      2.79662001	     41.27104757	      0.72031567	     18.49847875	    -19.73427268	     -7.49999987	     36.20182246	     -8.40768213	      3.18562578	     42.49590398	      0.74169344	     23.49185766	     -3.27550304	     -7.49999987	    -12.49910674	      1.87783843	      0.02228391	      3.62831427	     -7.82066914	     -2.36881121	     27.48335270	     86.49179724	      2.44564692	     -6.30797166	     -3.33288628	     28.35413658	     90.18542895
      6.48333330	    -17.43125614	     -0.85735934	      0.70890013	      0.36476106	      0.88398670	      0.02916279	     38.48574737	     -2.04643641	      2.87465515	     41.33235351	      0.72138566	     18.47133286	    -19.65005256	     -7.49999987	     36.63558021	     -8.14553266	      3.05693837	     42.35236503	      0.73918822	     23.38688095	     -3.27914889	     -7.49999987	    -12.02388732	      1.86719946	      0.01249830	      3.46900954	     -7.93950171	     -2.11838803	     27.53044953	     86.49813630	      2.43299088	     -6.24251026	     -3.04908034	     28.42678657	     90.19805508
      6.48750000	    -17.91198645	     -0.78056365	      0.81846219	      0.36481264	      0.88559879	      0.03090600	     38.83632712	     -2.13444846	      3.01747008	     41.06567584	      0.71673125	     18.23927946	    -19.81598456	     -7.49999987	     36.95903862	     -8.00697807	      2.95267209	     41.87763731	      0.73090265	     23.16231202	     -3.14856193	     -7.49999987	    -11.39677375	      1.83633914	     -0.03379137	      3.20194640	     -7.95058169	     -1.89774294	     27.64676577	     85.34788267	      2.34514942	     -6.21208291	     -2.80916561	     28.58649739	     89.03359845
      6.49166670	    -18.16150159	     -0.83439087	      0.78082736	      0.36755933	      0.88492869	      0.03220277	     38.83660361	     -2.02093765	      3.04039168	     40.71823823	      0.71066732	     18.22444189	    -19.72074786	     -7.49999987	     36.98503995	     -8.11175268	      3.04432290	     41.59877259	      0.72603555	     23.02592892	     -3.19227037	     -7.49999987	    -10.80935904	      1.83501217	      0.05572275	      2.96740677	     -7.99608545	     -1.45409179	     27.57533081	     85.78607601	      2.13799933	     -6.21513372	     -2.46593629	     28.54689168	     89.48196799
      6.49583330	    -18.51297681	     -0.89222983	      0.74641244	      0.36823779	      0.88624375	      0.03296806	     38.85433293	     -1.82000964	      3.10451713	     40.21025218	      0.70180129	     17.98678276	    -19.95406328	     -7.49999987	     36.99570595	     -8.24359265	      3.10756125	     41.06258585	      0.71667732	     22.71419412	     -3.17352832	     -7.49999987	    -10.13495652	      1.77751920	      0.03070195	      2.68628414	     -7.89346391	     -1.89929132	     27.61169393	     91.54470827	      1.77777187	     -6.16820615	     -3.95630748	     28.78132511	     97.19865897
      6.50000000	    -18.70688335	     -0.86276933	      0.75218806	      0.36756397	      0.88778731	      0.02965378	     38.74983545	     -1.85087299	      3.26275062	     39.64609516	      0.69195490	     17.99939182	    -19.88472336	     -7.49999987	     36.90000454	     -8.16282867	      3.15920512	     40.64452545	      0.70938079	     22.66769068	     -3.13715206	     -7.49999987	     -9.80085665	      1.77165298	     -0.01244672	      2.58577761	     -7.91935528	     -1.89142857	     27.63340936	     91.54767481	      1.74181413	     -6.06623326	     -3.92720787	     28.84224185	     97.20343213
      6.50416670	    -18.98706146	     -0.86350549	      0.71568567	      0.36948915	      0.88482033	      0.02927647	     38.73515292	     -1.86360809	      3.32186078	     39.22948617	      0.68468370	     17.74030336	    -20.05906947	     -7.49999987	     36.88394224	     -8.09296395	      3.25515595	     40.25855363	      0.70264431	     22.43955040	     -3.47046864	     -7.49999987	     -9.03791041	      1.79572564	      0.06275543	      2.19964355	     -7.86994635	     -1.63813440	     27.54058935	     86.50218513	      1.41236179	     -5.97329557	     -3.39537525	     28.72208659	     90.96707947
      6.50833330	    -19.34488989	     -0.86267600	      0.69119174	      0.36868580	      0.88717433	      0.02991290	     38.89484658	     -1.83172423	      3.48720320	     38.79776992	      0.67714883	     17.47132337	    -20.26194753	     -7.49999987	     37.08539290	     -7.99189925	      3.39742841	     39.95757321	      0.69739121	     22.17685511	     -3.75775558	     -7.49999987	     -8.35303233	      1.82546784	      0.12766477	      1.95349859	     -8.25764615	      0.03478271	     27.57599291	     88.26404328	      1.29804208	     -6.24741235	     -1.72291590	     28.64297389	     93.40147328
      6.51250000	    -19.45471532	     -0.83683279	      0.71332629	      0.36912764	      0.88894084	      0.03059089	     38.66760796	     -1.82149613	      3.57536074	     38.17564878	      0.66629077	     17.28401833	    -20.30746833	     -7.49999987	     36.92005393	     -7.90259221	      3.49937134	     39.43473566	      0.68826598	     21.86136729	     -3.89468655	     -7.49999987	     -8.01998253	      1.83144243	      0.11838134	      1.82454688	     -8.20480480	     -0.12585616	     27.46485292	     87.75042327	      1.24651175	     -6.16591235	     -1.88213046	     28.56905554	     92.64608644
